<svg width="637" height="514" viewBox="0 0 637 514" fill="none" xmlns="http://www.w3.org/2000/svg">
<path d="M361.5 1.33008C331.98 1.33008 303.29 4.8701 275.84 11.5701C263.47 14.5801 251.36 18.2201 239.57 22.4701C200.37 36.5701 164.3 57.2401 132.74 83.1901C107.59 103.86 85.32 127.87 66.53 154.54C77.81 157.54 89.64 159.12 101.87 159.12C134.89 159.12 165.16 147.53 188.86 128.18C191.88 125.31 195.01 122.51 198.2 119.8H198.22C237.03 86.9901 287.2 67.2201 341.99 67.2201C465.04 67.2201 564.8 166.99 564.8 290.03C564.8 307.58 562.76 324.65 558.93 341.05C557.22 348.35 555.15 355.52 552.72 362.5C524.23 445.42 448.16 506.23 357.12 512.33H638V130.51C571.87 51.5501 472.55 1.33008 361.5 1.33008ZM132.17 122.44C125.32 122.44 119.75 116.87 119.75 110.02C119.75 103.16 125.32 97.6001 132.17 97.6001C139.03 97.6001 144.59 103.16 144.59 110.02C144.59 116.87 139.03 122.44 132.17 122.44ZM119.18 290.03C119.18 267.22 122.6 245.22 128.96 224.5C57.45 229.47 1 289.05 1 361.83C1 415.55 12.75 466.53 33.83 512.33H326.83C286.47 509.62 249.06 496.17 217.42 474.81C158.15 434.76 119.18 366.95 119.18 290.03Z" stroke="#212121" stroke-width="1.4173" stroke-miterlimit="10"/>
</svg>
