<svg width="31" height="24" viewBox="0 0 31 24" fill="none" xmlns="http://www.w3.org/2000/svg">
<path d="M30.19 3.67034C30.19 9.11034 30.19 14.5503 30.19 19.9903C30.15 20.0703 30.1 20.1403 30.08 20.2303C29.63 22.0603 28.26 23.2004 26.41 23.2104C19.02 23.2204 11.63 23.2204 4.23996 23.2104C3.20996 23.2104 2.23996 22.8904 1.57996 22.0804C1.09996 21.4804 0.829961 20.7003 0.459961 19.9903C0.459961 14.5503 0.459961 9.11034 0.459961 3.67034C0.499961 3.59034 0.549962 3.52035 0.569962 3.43035C1.02996 1.60035 2.38996 0.460371 4.23996 0.450371C11.63 0.440371 19.02 0.440371 26.41 0.450371C27.44 0.450371 28.41 0.770376 29.07 1.58038C29.55 2.19038 29.82 2.97034 30.19 3.67034ZM11.7 11.8003C9.00995 14.9403 6.35995 18.0303 3.60995 21.2403C11.47 21.2403 19.1799 21.2403 27.0399 21.2403C24.2699 18.0103 21.61 14.9103 18.95 11.8003C17.96 12.6603 17.0499 13.4704 16.1199 14.2604C15.5199 14.7704 15.14 14.7704 14.55 14.2704C13.61 13.4704 12.68 12.6603 11.7 11.8003ZM15.33 12.4903C19.15 9.14035 22.9499 5.82036 26.8699 2.38036C19.0999 2.38036 11.54 2.38036 3.77995 2.38036C7.70995 5.83036 11.51 9.15035 15.33 12.4903ZM20.35 10.5704C22.99 13.6504 25.59 16.6804 28.28 19.8204C28.28 14.3704 28.28 9.10037 28.28 3.64037C25.57 6.01037 22.99 8.26037 20.35 10.5704ZM10.31 10.5704C7.67995 8.27037 5.08996 6.01036 2.37996 3.63036C2.37996 9.11036 2.37996 14.3804 2.37996 19.8204C5.07996 16.6704 7.66995 13.6404 10.31 10.5704Z" fill="#E0DDDE"/>
</svg>
